<svg width="20" height="21" viewBox="0 0 20 21" fill="none" xmlns="http://www.w3.org/2000/svg">
<path fill-rule="evenodd" clip-rule="evenodd" d="M10 20.9102C5.28595 20.9102 2.92893 20.9102 1.46447 19.4457C0 17.9812 0 15.6242 0 10.9102C0 6.19611 0 3.83909 1.46447 2.37462C2.92893 0.910156 5.28595 0.910156 10 0.910156C14.714 0.910156 17.0711 0.910156 18.5355 2.37462C20 3.83909 20 6.19611 20 10.9102C20 15.6242 20 17.9812 18.5355 19.4457C17.0711 20.9102 14.714 20.9102 10 20.9102ZM10 6.66016C9.37868 6.66016 8.875 7.16384 8.875 7.78516C8.875 8.19937 8.53921 8.53516 8.125 8.53516C7.71079 8.53516 7.375 8.19937 7.375 7.78516C7.375 6.33541 8.55025 5.16016 10 5.16016C11.4497 5.16016 12.625 6.33541 12.625 7.78516C12.625 8.49599 12.3415 9.14214 11.883 9.61412C11.7907 9.7091 11.7027 9.79703 11.6187 9.88092C11.4029 10.0966 11.2138 10.2855 11.0479 10.4987C10.8289 10.7801 10.75 10.9869 10.75 11.1602V11.9102C10.75 12.3244 10.4142 12.6602 10 12.6602C9.58579 12.6602 9.25 12.3244 9.25 11.9102V11.1602C9.25 10.505 9.55501 9.97459 9.86417 9.57736C10.0929 9.28345 10.3804 8.9965 10.6138 8.76362C10.6842 8.69337 10.7496 8.62804 10.807 8.56893C11.0046 8.36559 11.125 8.0902 11.125 7.78516C11.125 7.16384 10.6213 6.66016 10 6.66016ZM10 15.9102C10.5523 15.9102 11 15.4624 11 14.9102C11 14.3579 10.5523 13.9102 10 13.9102C9.44771 13.9102 9 14.3579 9 14.9102C9 15.4624 9.44771 15.9102 10 15.9102Z" fill="#05010F"/>
</svg>
