<svg width="20" height="22" viewBox="0 0 20 22" fill="none" xmlns="http://www.w3.org/2000/svg">
<path fill-rule="evenodd" clip-rule="evenodd" d="M0 10.7387C0 5.86702 0 3.43117 1.46447 1.91774C2.92893 0.404297 5.28595 0.404297 10 0.404297C14.714 0.404297 17.0711 0.404297 18.5355 1.91774C20 3.43117 20 5.86702 20 10.7387C20 15.6104 20 18.0462 18.5355 19.5597C17.0711 21.0731 14.714 21.0731 10 21.0731C5.28595 21.0731 2.92893 21.0731 1.46447 19.5597C0 18.0462 0 15.6104 0 10.7387ZM15.75 10.7387C15.75 11.1668 15.4142 11.5138 15 11.5138H9.81066L11.5303 13.291C11.8232 13.5936 11.8232 14.0844 11.5303 14.3871C11.2374 14.6898 10.7626 14.6898 10.4697 14.3871L7.46967 11.2868C7.32902 11.1414 7.25 10.9443 7.25 10.7387C7.25 10.5331 7.32902 10.336 7.46967 10.1906L10.4697 7.09031C10.7626 6.78763 11.2374 6.78763 11.5303 7.09031C11.8232 7.393 11.8232 7.88376 11.5303 8.18644L9.81066 9.96362H15C15.4142 9.96362 15.75 10.3106 15.75 10.7387ZM5.75 6.60494C5.75 6.17687 5.41421 5.82986 5 5.82986C4.58579 5.82986 4.25 6.17687 4.25 6.60494L4.25 14.8725C4.25 15.3005 4.58579 15.6475 5 15.6475C5.41421 15.6475 5.75 15.3005 5.75 14.8725L5.75 6.60494Z" fill="#414141" fill-opacity="0.4"/>
</svg>
