<svg width="20" height="22" viewBox="0 0 20 22" fill="none" xmlns="http://www.w3.org/2000/svg">
<path fill-rule="evenodd" clip-rule="evenodd" d="M0 10.7387C0 5.86702 0 3.43117 1.46447 1.91774C2.92893 0.404297 5.28595 0.404297 10 0.404297C14.714 0.404297 17.0711 0.404297 18.5355 1.91774C20 3.43117 20 5.86702 20 10.7387C20 15.6104 20 18.0462 18.5355 19.5597C17.0711 21.0731 14.714 21.0731 10 21.0731C5.28595 21.0731 2.92893 21.0731 1.46447 19.5597C0 18.0462 0 15.6104 0 10.7387ZM4.25 10.7387C4.25 11.1668 4.58579 11.5138 5 11.5138H10.1893L8.46967 13.291C8.17678 13.5936 8.17678 14.0844 8.46967 14.3871C8.76256 14.6898 9.23744 14.6898 9.53033 14.3871L12.5303 11.2868C12.671 11.1414 12.75 10.9443 12.75 10.7387C12.75 10.5331 12.671 10.336 12.5303 10.1906L9.53033 7.09031C9.23744 6.78763 8.76256 6.78763 8.46967 7.09031C8.17678 7.393 8.17678 7.88376 8.46967 8.18644L10.1893 9.96362H5C4.58579 9.96362 4.25 10.3106 4.25 10.7387ZM15.75 6.60494C15.75 6.17687 15.4142 5.82986 15 5.82986C14.5858 5.82986 14.25 6.17687 14.25 6.60494V14.8725C14.25 15.3005 14.5858 15.6475 15 15.6475C15.4142 15.6475 15.75 15.3005 15.75 14.8725V6.60494Z" fill="#414141" fill-opacity="0.4"/>
</svg>
