<svg width="24" height="25" viewBox="0 0 24 25" fill="none" xmlns="http://www.w3.org/2000/svg">
<path d="M15.75 13.1602V12.4102C15.75 11.9959 15.4142 11.6602 15 11.6602C14.5858 11.6602 14.25 11.9959 14.25 12.4102V13.1602H7C6.30964 13.1602 5.75 12.6005 5.75 11.9102C5.75 11.2198 6.30964 10.6602 7 10.6602H17C17.6904 10.6602 18.25 11.2198 18.25 11.9102C18.25 12.6005 17.6904 13.1602 17 13.1602H15.75Z" fill="#05010F"/>
<path d="M6.75 17.9102C6.75 17.4959 7.08579 17.1602 7.5 17.1602C7.91421 17.1602 8.25 17.4959 8.25 17.9102C8.25 18.3244 7.91421 18.6602 7.5 18.6602C7.08579 18.6602 6.75 18.3244 6.75 17.9102Z" fill="#05010F"/>
<path fill-rule="evenodd" clip-rule="evenodd" d="M15.3195 4.58895C15.6943 4.41258 15.8552 3.96577 15.6788 3.59099C15.5024 3.2162 15.0556 3.05535 14.6808 3.23172L6.76692 6.95591C5.03147 7.04501 3.94566 7.30764 3.17157 8.08173C2 9.2533 2 11.1389 2 14.9102C2 18.6814 2 20.567 3.17157 21.7386C4.34315 22.9102 6.22876 22.9102 10 22.9102H14C17.7712 22.9102 19.6569 22.9102 20.8284 21.7386C22 20.567 22 18.6814 22 14.9101C22 11.1389 22 9.2533 20.8284 8.08173C19.6569 6.91016 17.7712 6.91016 14 6.91016H10.387L15.3195 4.58895ZM7 9.16016C5.48122 9.16016 4.25 10.3914 4.25 11.9102C4.25 13.4289 5.48122 14.6602 7 14.6602H17C18.5188 14.6602 19.75 13.4289 19.75 11.9102C19.75 10.3914 18.5188 9.16016 17 9.16016H7ZM5.25 17.9102C5.25 16.6675 6.25736 15.6602 7.5 15.6602C8.74264 15.6602 9.75 16.6675 9.75 17.9102C9.75 19.1528 8.74264 20.1602 7.5 20.1602C6.25736 20.1602 5.25 19.1528 5.25 17.9102ZM12.25 17.9102C12.25 17.4959 12.5858 17.1602 13 17.1602H18C18.4142 17.1602 18.75 17.4959 18.75 17.9102C18.75 18.3244 18.4142 18.6602 18 18.6602H13C12.5858 18.6602 12.25 18.3244 12.25 17.9102Z" fill="#05010F"/>
</svg>
